<svg width="12" height="16" viewBox="0 0 12 16" fill="none" xmlns="http://www.w3.org/2000/svg">
<path d="M9.84375 5.625C9.84375 3.31055 7.93945 1.40625 5.625 1.40625C3.28125 1.40625 1.40625 3.31055 1.40625 5.625C1.40625 6.00586 1.52344 6.5625 1.8457 7.32422C2.13867 8.02734 2.57812 8.84766 3.07617 9.66797C3.92578 11.0156 4.89258 12.3047 5.625 13.2422C6.32812 12.3047 7.29492 11.0156 8.14453 9.66797C8.64258 8.84766 9.08203 8.02734 9.375 7.32422C9.69727 6.5625 9.84375 6.00586 9.84375 5.625ZM11.25 5.625C11.25 8.20312 7.82227 12.7441 6.29883 14.6484C5.94727 15.0879 5.27344 15.0879 4.92188 14.6484C3.42773 12.7441 0 8.20312 0 5.625C0 2.51953 2.51953 0 5.625 0C8.73047 0 11.25 2.51953 11.25 5.625ZM6.5625 5.625C6.5625 5.12695 6.12305 4.6875 5.625 4.6875C5.09766 4.6875 4.6875 5.12695 4.6875 5.625C4.6875 6.15234 5.09766 6.5625 5.625 6.5625C6.12305 6.5625 6.5625 6.15234 6.5625 5.625ZM3.28125 5.625C3.28125 4.80469 3.7207 4.04297 4.45312 3.60352C5.15625 3.19336 6.06445 3.19336 6.79688 3.60352C7.5 4.04297 7.96875 4.80469 7.96875 5.625C7.96875 6.47461 7.5 7.23633 6.79688 7.67578C6.06445 8.08594 5.15625 8.08594 4.45312 7.67578C3.7207 7.23633 3.28125 6.47461 3.28125 5.625Z" fill="#818387"/>
</svg>
